<?xml version="1.0" standalone="no"?>
<!DOCTYPE svg PUBLIC "-//W3C//DTD SVG 20010904//EN"
 "http://www.w3.org/TR/2001/REC-SVG-20010904/DTD/svg10.dtd">
<svg version="1.0" xmlns="http://www.w3.org/2000/svg"
 width="100%" height="100%" viewBox="105 508 801 376"
 preserveAspectRatio="xMidYMid meet">

<g transform="translate(0.000000,1536.000000) scale(0.100000,-0.100000)"
fill="#000000" stroke="none">
<path d="M5075 10141 c-38 -9 -98 -32 -133 -51 -65 -34 -136 -103 -129 -123 8
-25 39 -17 100 27 68 48 156 91 166 80 3 -4 0 -9 -8 -12 -20 -7 -112 -84 -125
-105 -8 -13 -8 -20 3 -26 20 -13 58 3 119 49 29 22 55 40 57 40 3 0 -2 -14
-11 -32 -27 -52 -155 -170 -227 -210 -98 -54 -108 -56 -106 -21 3 40 -17 104
-44 144 -17 26 -31 35 -56 37 -23 2 -37 -2 -43 -12 -4 -8 -32 -25 -61 -39 -97
-44 -224 -184 -296 -325 -34 -67 -54 -55 -63 38 -5 41 -13 88 -18 106 -16 47
-71 106 -129 138 -81 43 -198 38 -270 -13 -14 -10 -51 -22 -81 -26 -30 -4 -67
-13 -81 -21 -30 -15 -54 -64 -44 -92 7 -24 68 -79 116 -106 l34 -19 -34 -11
c-29 -10 -49 -9 -115 7 -45 10 -92 24 -106 31 -14 8 -69 37 -122 65 -55 30
-162 73 -249 102 -83 27 -197 72 -253 99 -55 28 -137 63 -181 79 -44 15 -118
42 -165 59 -152 55 -217 65 -364 57 -72 -4 -145 -13 -163 -20 -40 -17 -66 -65
-54 -98 9 -22 64 -77 79 -77 42 -1 195 -22 213 -29 23 -8 22 -9 -17 -20 -77
-21 -116 -70 -80 -100 20 -17 263 -7 309 12 50 21 80 64 73 105 -3 19 -10 40
-16 47 -14 17 -157 77 -225 95 -67 17 -81 32 -25 25 59 -7 112 -21 180 -46
111 -42 116 -46 136 -110 15 -49 7 -93 -23 -121 -21 -19 -37 -23 -100 -25 -42
-2 -78 -4 -80 -6 -2 -2 34 -27 79 -54 46 -28 115 -70 153 -93 39 -24 135 -75
215 -113 206 -98 280 -160 280 -236 0 -43 -45 -114 -120 -190 -76 -77 -78 -78
-221 -134 -156 -61 -207 -96 -234 -161 -32 -76 -10 -175 56 -249 l39 -45 -36
-21 c-19 -12 -38 -21 -42 -21 -6 0 -110 -74 -138 -99 -7 -5 -14 -16 -17 -23
-7 -21 -46 21 -173 184 -166 214 -276 296 -427 320 -66 10 -79 9 -138 -11 -80
-26 -132 -68 -164 -132 -21 -40 -25 -63 -25 -130 0 -73 4 -90 34 -153 66 -136
169 -229 591 -528 143 -101 393 -281 555 -399 276 -201 531 -381 748 -528 50
-35 92 -65 92 -67 0 -8 -86 9 -275 53 -789 184 -1083 210 -1491 128 -252 -51
-534 -172 -534 -230 0 -17 42 -5 160 45 110 46 304 97 464 121 334 51 693 17
1286 -121 233 -54 360 -78 470 -90 52 -5 149 -21 215 -35 134 -28 220 -32 268
-11 97 41 92 126 -17 257 l-45 54 47 16 c202 69 443 254 599 459 56 74 156
239 233 385 99 188 122 229 137 246 8 10 51 23 106 33 150 27 468 96 521 113
44 14 47 17 32 31 -14 14 -33 14 -203 -7 -103 -12 -233 -28 -288 -36 -55 -7
-101 -12 -103 -10 -2 2 28 59 66 127 147 261 160 288 155 307 -6 23 1 25 197
47 112 12 412 24 616 24 18 0 18 34 0 49 -8 6 -51 19 -97 28 -117 22 -541 13
-754 -16 -517 -69 -774 -175 -741 -304 15 -62 81 -107 155 -107 61 0 66 30 11
62 -72 41 -13 95 165 151 97 30 293 72 301 65 3 -3 -19 -43 -49 -89 -30 -46
-89 -145 -132 -219 -42 -74 -81 -140 -86 -146 -5 -6 -33 -15 -62 -18 -91 -12
-257 -58 -290 -80 -54 -36 -44 -96 18 -112 17 -4 50 6 107 35 46 22 103 44
127 47 l44 7 -63 -119 c-223 -422 -381 -630 -588 -775 -65 -45 -228 -129 -252
-129 -5 0 -82 70 -170 156 l-160 157 85 28 c47 16 109 44 138 62 66 42 144
129 169 186 46 108 45 269 -3 368 -32 66 -126 162 -205 209 -73 43 -220 104
-252 104 -10 0 -19 6 -19 14 0 10 35 2 131 -31 142 -48 264 -65 306 -43 46 25
63 91 70 275 4 94 12 185 18 203 12 36 72 127 163 247 33 44 79 117 102 163
36 74 41 93 45 171 3 68 1 95 -12 120 l-17 32 54 82 c133 200 229 297 294 297
40 0 48 -22 47 -120 0 -97 -28 -143 -159 -274 -126 -125 -184 -205 -192 -265
-8 -55 6 -52 59 12 24 28 104 113 179 187 110 110 141 147 166 200 17 36 33
72 36 81 3 10 22 20 44 24 161 29 401 266 380 374 -4 20 -1 30 14 39 24 16 24
38 0 52 -26 13 -53 12 -136 -9z m-2918 -196 c59 -25 28 -36 -56 -20 -81 16
-86 18 -76 36 9 14 79 6 132 -16z m595 -106 c167 -84 248 -150 304 -247 14
-26 29 -38 47 -40 18 -2 27 1 27 11 0 29 -24 83 -48 110 -14 15 -21 27 -16 27
17 0 159 -58 241 -98 183 -90 201 -109 242 -252 45 -156 82 -212 169 -258 62
-33 126 -49 136 -34 7 12 -17 33 -79 67 -88 48 -104 72 -150 224 -13 45 -31
97 -40 114 -8 16 -14 31 -13 32 2 1 22 -6 46 -16 37 -16 42 -22 42 -50 0 -17
11 -68 25 -113 19 -64 34 -91 66 -125 27 -28 45 -39 51 -33 6 6 6 18 -2 32 -7
12 -8 20 -3 18 89 -44 113 -51 168 -52 73 -1 161 39 206 93 27 33 29 34 29 12
0 -37 -77 -172 -152 -268 -145 -183 -159 -222 -168 -463 -7 -192 -16 -234 -52
-243 -16 -5 -18 -2 -11 16 28 82 -60 210 -176 258 l-47 20 -12 71 c-15 85 -53
144 -123 188 -97 63 -244 96 -381 86 l-80 -6 42 34 c57 45 149 59 275 41 50
-7 96 -10 103 -8 7 3 15 17 19 31 12 51 -28 90 -175 171 -45 24 -76 50 -97 81
-17 25 -57 66 -88 91 -60 49 -64 51 -341 184 l-180 87 39 21 c53 30 85 79 85
132 0 22 -7 50 -15 61 -35 46 -16 45 87 -7z m1281 -58 c76 -33 116 -108 103
-196 -7 -45 -8 -46 -39 -43 -28 3 -36 11 -60 58 -29 58 -79 115 -139 160 -21
15 -34 30 -31 34 14 14 123 5 166 -13z m-221 -82 c46 -31 161 -129 151 -129
-9 0 -78 31 -187 85 -52 26 -82 47 -85 59 -3 17 2 18 41 14 24 -3 60 -16 80
-29z m63 -246 c61 -3 121 -1 154 6 30 6 56 9 58 7 16 -16 -89 -136 -137 -157
-16 -8 -30 -17 -30 -21 0 -15 70 -19 105 -6 38 13 108 83 128 126 12 25 37 30
37 7 0 -27 -27 -68 -72 -111 -90 -85 -137 -103 -218 -84 -40 10 -57 21 -90 60
-57 69 -95 202 -52 185 9 -3 62 -9 117 -12z m-659 -324 c10 -12 44 -34 74 -49
l55 -28 -100 5 c-55 3 -100 6 -101 7 -4 4 38 86 45 86 4 0 16 -9 27 -21z m106
-298 c78 -30 119 -60 146 -106 19 -34 22 -50 19 -108 -7 -108 -57 -198 -173
-311 -51 -50 -110 -112 -133 -138 -22 -27 -43 -44 -46 -38 -3 5 -13 32 -21 59
-18 61 -90 161 -138 190 -43 27 -149 61 -189 61 -27 0 -28 0 -12 31 24 45 89
81 206 112 57 16 128 35 157 43 35 10 52 20 52 31 0 14 -10 15 -77 10 -88 -7
-244 -47 -303 -77 -39 -20 -39 -20 -50 -1 -16 31 -12 103 8 133 33 50 139 107
237 128 74 16 254 5 317 -19z m-588 -53 c-5 -7 -18 -28 -31 -47 -35 -51 -26
-145 16 -171 7 -4 -1 -18 -19 -35 -37 -36 -55 -29 -87 35 -34 66 -10 138 66
194 48 36 67 44 55 24z m-879 -138 c107 -59 163 -116 322 -325 50 -66 132
-166 182 -222 50 -56 91 -104 91 -107 0 -3 -9 -6 -20 -6 -29 0 -76 -26 -94
-52 -39 -56 -5 -154 72 -209 70 -49 122 -62 228 -57 l95 5 35 -46 c36 -47 216
-233 340 -351 275 -262 519 -440 602 -440 35 0 26 14 -39 61 -34 24 -83 62
-110 84 -141 117 -168 141 -168 147 -1 3 12 9 28 13 15 3 40 19 55 34 25 26
26 31 17 73 -6 24 -14 53 -18 64 -3 10 42 -28 102 -86 373 -358 409 -398 403
-447 -3 -26 -7 -28 -50 -31 -62 -4 -235 39 -324 82 -40 19 -107 58 -150 87
-145 98 -778 555 -1025 740 -135 101 -291 216 -348 254 -344 234 -483 374
-512 514 -33 158 42 258 186 248 37 -3 75 -13 100 -27z m1755 -151 c43 -25
115 -102 100 -107 -10 -4 -46 4 -143 29 l-37 10 15 29 c8 16 15 36 15 45 0 20
8 19 50 -6z m-735 -144 c69 -20 92 -40 125 -105 24 -47 30 -73 30 -120 0 -74
-14 -108 -36 -89 -9 7 -22 26 -31 43 -23 47 -54 76 -80 76 -28 0 -28 -1 -3
-50 36 -71 21 -71 -47 0 -75 80 -147 119 -253 140 -36 7 -69 16 -74 21 -10 9
114 91 146 96 12 2 24 6 27 9 9 9 145 -5 196 -21z m638 -96 c140 -47 284 -155
332 -249 76 -150 41 -328 -85 -443 -65 -59 -173 -117 -232 -125 -34 -4 -44 0
-104 52 -79 67 -124 92 -200 109 l-57 13 47 41 c57 51 154 85 240 87 34 0 109
-5 168 -13 59 -8 110 -12 114 -9 13 14 -8 45 -40 61 -19 8 -81 27 -138 42 -56
14 -131 39 -165 55 -78 36 -193 117 -193 136 0 8 0 17 -1 21 -2 19 23 10 99
-36 71 -43 204 -101 233 -101 20 0 7 40 -18 58 -56 39 -231 142 -242 142 -22
0 -10 21 60 100 80 90 84 92 182 59z m-881 -95 c26 -8 51 -20 55 -26 4 -8 0
-9 -13 -3 -63 26 -184 33 -184 11 0 -24 23 -33 97 -39 83 -7 143 -30 196 -76
40 -36 63 -94 53 -135 -7 -27 -62 -96 -77 -96 -14 0 -149 146 -199 215 -25 34
-60 82 -77 105 -52 68 -46 78 34 68 37 -4 88 -15 115 -24z m-125 -248 c4 -8
41 -48 81 -90 39 -41 72 -78 72 -82 0 -13 -116 3 -153 21 -66 31 -109 119 -75
153 16 16 65 15 75 -2z m628 -50 c72 -25 144 -46 160 -46 17 -1 39 -5 50 -9
17 -7 14 -10 -20 -20 -22 -6 -44 -11 -49 -11 -18 0 -113 -53 -139 -78 -37 -35
-77 -105 -97 -169 l-16 -53 -50 53 c-28 28 -76 81 -107 116 l-57 64 51 35 c48
32 74 71 103 156 4 12 12 16 24 12 9 -3 76 -26 147 -50z m151 -352 c75 -43 73
-51 -14 -52 -42 -1 -95 -3 -117 -4 -34 -3 -40 0 -43 17 -1 11 9 32 22 47 22
23 31 26 68 21 24 -3 61 -16 84 -29z m44 -129 c55 -28 92 -102 76 -153 -10
-31 -62 -36 -100 -10 -41 29 -146 129 -146 139 0 16 56 38 98 39 24 0 56 -7
72 -15z"/>
<path d="M7354 8772 c-79 -57 -153 -159 -253 -345 -29 -52 -57 -100 -64 -105
-15 -12 -221 -27 -216 -16 2 5 28 55 57 111 56 110 61 133 36 157 -47 48 -115
-6 -193 -155 -61 -117 -63 -119 -133 -119 -66 0 -128 -21 -128 -44 0 -31 30
-46 91 -46 32 0 59 -1 59 -3 0 -3 -95 -201 -108 -227 -10 -18 -120 -79 -144
-80 -22 0 -98 88 -98 114 0 51 66 90 111 66 22 -12 59 3 59 24 0 20 -43 55
-76 62 -60 12 -194 -72 -194 -121 0 -16 -46 -55 -65 -55 -7 0 -16 15 -19 34
-15 80 -51 117 -126 131 -28 5 -47 0 -92 -24 -66 -35 -68 -36 -68 -18 0 8 -11
20 -25 27 -37 20 -108 5 -179 -37 -69 -41 -200 -163 -223 -206 -28 -55 -24
-18 6 54 17 41 31 84 31 96 0 24 -35 54 -55 47 -15 -6 -82 -149 -120 -254 -15
-41 -33 -92 -41 -113 -21 -57 -18 -86 11 -99 34 -15 71 2 93 43 38 71 139 199
214 270 108 105 210 156 255 130 15 -9 15 -10 2 -11 -30 0 -98 -71 -129 -134
-81 -164 -30 -276 126 -276 113 0 209 67 272 188 38 72 46 81 88 97 l46 17 16
-23 c9 -13 29 -36 44 -51 15 -14 28 -28 28 -31 0 -3 -21 -13 -48 -21 -102 -34
-164 -104 -142 -161 24 -62 160 -73 247 -18 55 34 83 82 83 143 0 42 3 46 43
70 58 35 60 35 53 12 -30 -93 -22 -177 19 -218 34 -34 108 -33 176 1 50 26
130 98 161 145 l17 25 1 -45 c0 -60 29 -105 75 -120 64 -21 132 1 218 72 l47
40 0 -31 c0 -45 40 -81 91 -81 55 0 94 19 167 79 l62 52 -6 -38 c-5 -31 -2
-42 15 -57 25 -23 73 -25 97 -5 9 8 49 55 89 104 39 50 95 116 124 147 53 58
145 131 154 122 3 -3 -17 -51 -44 -107 -42 -89 -49 -110 -49 -165 0 -57 3 -67
29 -93 24 -24 38 -29 76 -29 56 0 95 16 160 65 27 21 50 34 52 29 2 -5 12 -23
23 -41 51 -85 215 -103 355 -38 127 58 345 226 345 266 0 26 -16 24 -59 -10
-20 -15 -77 -55 -128 -88 -236 -155 -413 -174 -413 -44 0 25 5 31 38 41 107
34 236 131 271 203 28 57 26 82 -5 114 -23 23 -31 25 -78 20 -114 -12 -246
-117 -318 -252 -59 -112 -174 -210 -223 -191 -26 10 -12 56 67 212 73 147 77
164 38 199 -15 14 -31 16 -70 13 -70 -7 -141 -54 -262 -174 l-100 -99 51 102
c28 57 51 113 51 126 0 54 -79 77 -116 35 -11 -13 -41 -67 -67 -120 -52 -107
-117 -186 -211 -255 -69 -51 -86 -54 -86 -14 0 32 32 97 108 220 57 93 65 131
30 155 -27 19 -68 21 -90 4 -9 -7 -42 -65 -74 -128 -32 -63 -76 -134 -97 -157
-91 -100 -215 -166 -218 -117 -5 93 20 159 93 241 162 183 316 432 394 641 31
81 31 116 -1 147 -32 33 -63 31 -111 -3z m50 -99 c-17 -73 -249 -487 -319
-568 -30 -35 147 326 226 461 45 78 85 134 96 134 2 0 1 -12 -3 -27z m-404
-438 c0 -4 -28 -70 -106 -243 -64 -144 -270 -333 -306 -281 -13 20 -1 100 29
182 21 59 144 309 160 327 10 10 223 25 223 15z m1600 -135 c0 -35 -198 -195
-218 -176 -15 16 117 161 173 189 34 17 45 14 45 -13z m-2612 -32 c14 -14 16
-67 2 -88 -12 -19 -39 -4 -60 33 -13 23 -13 28 4 46 22 24 37 26 54 9z m-135
-88 c10 -17 36 -39 58 -50 21 -11 39 -25 39 -31 0 -28 -97 -141 -142 -165 -40
-21 -65 -17 -84 11 -14 21 -15 32 -4 73 6 26 19 65 29 87 18 40 67 105 80 105
4 0 15 -14 24 -30z m424 -214 c-18 -19 -108 -76 -119 -76 -20 0 -5 41 22 60
61 43 137 56 97 16z"/>
<path d="M7510 8413 c-29 -26 -34 -37 -38 -89 -4 -63 7 -84 53 -98 32 -10 84
29 107 80 30 70 10 120 -53 130 -31 5 -41 2 -69 -23z"/>
</g>
</svg>
